<svg width="38" height="38" viewBox="0 0 38 38" fill="none" xmlns="http://www.w3.org/2000/svg">
<g opacity="0.3">
<path d="M17.2817 1.88924C18.3447 1.27553 19.6543 1.27553 20.7173 1.88924L33.0173 8.99064C34.0803 9.60436 34.7351 10.7386 34.7351 11.966V26.1688C34.7351 27.3962 34.0803 28.5304 33.0173 29.1441L20.7173 36.2455C19.6543 36.8592 18.3447 36.8592 17.2817 36.2455L4.98171 29.1441C3.91872 28.5304 3.2639 27.3962 3.2639 26.1688V11.966C3.2639 10.7386 3.91873 9.60436 4.98171 8.99064L17.2817 1.88924Z" stroke="white" stroke-width="2" stroke-linecap="round" stroke-linejoin="round"/>
<path d="M17.9998 8.19063C18.6186 7.83337 19.381 7.83337 19.9998 8.19063L27.9191 12.7629C28.5379 13.1201 28.9191 13.7804 28.9191 14.4949V23.6394C28.9191 24.3539 28.5379 25.0142 27.9191 25.3714L19.9998 29.9436C19.381 30.3009 18.6186 30.3009 17.9998 29.9436L10.0804 25.3714C9.46162 25.0142 9.08042 24.3539 9.08042 23.6394V14.4949C9.08042 13.7804 9.46162 13.1201 10.0804 12.7629L17.9998 8.19063Z" fill="white" stroke="white" stroke-width="2" stroke-linecap="round" stroke-linejoin="round"/>
<path d="M19.3098 14.5015L20.703 17.3002C20.7152 17.3246 20.7332 17.3457 20.7555 17.3617C20.7778 17.3777 20.8036 17.3881 20.8308 17.3921L23.9462 17.841C23.9775 17.8455 24.0069 17.8587 24.031 17.8789C24.0552 17.8992 24.0732 17.9257 24.083 17.9555C24.0927 17.9854 24.0939 18.0173 24.0864 18.0478C24.0788 18.0782 24.0629 18.106 24.0402 18.1279L21.786 20.3059C21.7663 20.3249 21.7516 20.3484 21.743 20.3744C21.7345 20.4003 21.7325 20.4279 21.7371 20.4548L22.2694 23.5296C22.2747 23.5605 22.2712 23.5923 22.2592 23.6213C22.2473 23.6504 22.2274 23.6756 22.2018 23.694C22.1761 23.7124 22.1458 23.7234 22.1143 23.7257C22.0827 23.728 22.0511 23.7214 22.0231 23.7069L19.2368 22.2546C19.2124 22.2418 19.1853 22.2351 19.1577 22.2351C19.1301 22.2351 19.103 22.2418 19.0786 22.2546L16.2923 23.7069C16.2643 23.7215 16.2327 23.728 16.2012 23.7258C16.1696 23.7235 16.1393 23.7125 16.1137 23.6941C16.0881 23.6756 16.0682 23.6504 16.0563 23.6214C16.0444 23.5923 16.0409 23.5605 16.0463 23.5296L16.5783 20.4548C16.5829 20.4279 16.5809 20.4003 16.5724 20.3744C16.5638 20.3484 16.5491 20.3249 16.5294 20.3059L14.2752 18.1273C14.2526 18.1053 14.2366 18.0776 14.229 18.0471C14.2215 18.0166 14.2227 17.9847 14.2324 17.9549C14.2422 17.925 14.2602 17.8985 14.2844 17.8783C14.3085 17.858 14.3379 17.8449 14.3692 17.8403L17.4846 17.3914C17.5118 17.3874 17.5376 17.377 17.5599 17.361C17.5822 17.345 17.6002 17.3239 17.6124 17.2995L19.0056 14.5008C19.0196 14.4726 19.0413 14.449 19.0683 14.4324C19.0952 14.4159 19.1262 14.4072 19.1579 14.4072C19.1896 14.4073 19.2206 14.4162 19.2475 14.4328C19.2743 14.4495 19.2959 14.4733 19.3098 14.5015Z" fill="#25283D"/>
</g>
</svg>
