<svg width="37" height="29" viewBox="0 0 37 29" fill="none" xmlns="http://www.w3.org/2000/svg">
<path d="M14.3851 18.3659C18.9448 18.3659 22.6413 14.6695 22.6413 10.1097C22.6413 5.54993 18.9448 1.85352 14.3851 1.85352C9.82532 1.85352 6.12891 5.54993 6.12891 10.1097C6.12891 14.6695 9.82532 18.3659 14.3851 18.3659Z" stroke="white" stroke-width="2" stroke-linecap="round" stroke-linejoin="round"/>
<path d="M1.70996 27.2203C2.70685 24.6247 4.4687 22.3932 6.76216 20.8213C9.05561 19.2494 11.7725 18.4113 14.5529 18.418C17.3334 18.4247 20.0461 19.2758 22.332 20.8587C24.6179 22.4416 26.369 24.6815 27.3535 27.2819" stroke="white" stroke-width="2" stroke-linecap="round" stroke-linejoin="round"/>
<path d="M26.3662 4.9248C27.9827 4.9248 29.5329 5.56695 30.676 6.70997C31.819 7.853 32.4611 9.40327 32.4611 11.0198C32.4611 12.6362 31.819 14.1865 30.676 15.3295C29.5329 16.4725 27.9827 17.1147 26.3662 17.1147" stroke="white" stroke-width="2" stroke-linecap="round" stroke-linejoin="round"/>
<path d="M26.4624 17.1543C28.5187 17.1542 30.5262 17.78 32.2183 18.9484C33.9103 20.1168 35.2067 21.7725 35.9351 23.6954" stroke="white" stroke-width="2" stroke-linecap="round" stroke-linejoin="round"/>
</svg>
