<svg width="37" height="39" viewBox="0 0 37 39" fill="none" xmlns="http://www.w3.org/2000/svg">
<path d="M17.0478 2.38924C18.1108 1.77553 19.4205 1.77553 20.4834 2.38924L32.7834 9.49064C33.8464 10.1044 34.5012 11.2386 34.5012 12.466V26.6688C34.5012 27.8962 33.8464 29.0304 32.7834 29.6441L20.4834 36.7455C19.4205 37.3592 18.1108 37.3592 17.0478 36.7455L4.74783 29.6441C3.68484 29.0304 3.03001 27.8962 3.03001 26.6688V12.466C3.03001 11.2386 3.68484 10.1044 4.74783 9.49064L17.0478 2.38924Z" stroke="white" stroke-width="2" stroke-linecap="round" stroke-linejoin="round"/>
<path d="M17.7654 8.69063C18.3842 8.33337 19.1466 8.33337 19.7654 8.69063L27.6847 13.2629C28.3035 13.6201 28.6847 14.2804 28.6847 14.9949V24.1394C28.6847 24.8539 28.3035 25.5142 27.6847 25.8714L19.7654 30.4436C19.1466 30.8009 18.3842 30.8009 17.7654 30.4436L9.84605 25.8714C9.22725 25.5142 8.84605 24.8539 8.84605 24.1394V14.9949C8.84605 14.2804 9.22725 13.6201 9.84605 13.2629L17.7654 8.69063Z" fill="#FFBB00" stroke="#FFBB00" stroke-width="2" stroke-linecap="round" stroke-linejoin="round"/>
<path d="M19.0759 15.0015L20.4691 17.8002C20.4813 17.8246 20.4994 17.8457 20.5216 17.8617C20.5439 17.8777 20.5697 17.8881 20.5969 17.8921L23.7123 18.341C23.7436 18.3455 23.773 18.3587 23.7971 18.3789C23.8213 18.3992 23.8393 18.4257 23.8491 18.4555C23.8589 18.4854 23.86 18.5173 23.8525 18.5478C23.8449 18.5782 23.829 18.606 23.8064 18.6279L21.5521 20.8059C21.5324 20.8249 21.5177 20.8484 21.5092 20.8744C21.5006 20.9003 21.4986 20.9279 21.5032 20.9548L22.0356 24.0296C22.0408 24.0605 22.0373 24.0923 22.0254 24.1213C22.0134 24.1504 21.9935 24.1756 21.9679 24.194C21.9422 24.2124 21.9119 24.2234 21.8804 24.2257C21.8488 24.228 21.8172 24.2214 21.7892 24.2069L19.0029 22.7546C18.9785 22.7418 18.9514 22.7351 18.9238 22.7351C18.8962 22.7351 18.8691 22.7418 18.8447 22.7546L16.0584 24.2069C16.0304 24.2215 15.9989 24.228 15.9673 24.2258C15.9357 24.2235 15.9054 24.2125 15.8798 24.1941C15.8542 24.1756 15.8343 24.1504 15.8224 24.1214C15.8105 24.0923 15.807 24.0605 15.8124 24.0296L16.3444 20.9548C16.349 20.9279 16.347 20.9003 16.3385 20.8744C16.3299 20.8484 16.3152 20.8249 16.2955 20.8059L14.0413 18.6273C14.0187 18.6053 14.0027 18.5776 13.9951 18.5471C13.9876 18.5166 13.9888 18.4847 13.9986 18.4549C14.0083 18.425 14.0263 18.3985 14.0505 18.3783C14.0746 18.358 14.104 18.3449 14.1353 18.3403L17.2507 17.8914C17.2779 17.8874 17.3038 17.877 17.326 17.861C17.3483 17.845 17.3663 17.8239 17.3785 17.7995L18.7717 15.0008C18.7857 14.9726 18.8074 14.949 18.8344 14.9324C18.8613 14.9159 18.8924 14.9072 18.924 14.9072C18.9557 14.9073 18.9867 14.9162 19.0136 14.9328C19.0404 14.9495 19.062 14.9733 19.0759 15.0015Z" fill="#25283D"/>
</svg>
